<?xml version="1.0" encoding="UTF-8"?>
<!DOCTYPE svg PUBLIC "-//W3C//DTD SVG 1.1//EN" "http://www.w3.org/Graphics/SVG/1.1/DTD/svg11.dtd">
<!-- Creator: CorelDRAW X7 -->
<svg xmlns="http://www.w3.org/2000/svg" xml:space="preserve" width="6.24mm" height="6.8256mm" version="1.1" style="shape-rendering:geometricPrecision; text-rendering:geometricPrecision; image-rendering:optimizeQuality; fill-rule:evenodd; clip-rule:evenodd"
viewBox="0 0 30 32"
 xmlns:xlink="http://www.w3.org/1999/xlink">
 <defs>
  <style type="text/css">
   <![CDATA[
    .fil0 {fill:#FEFEFE}
   ]]>
  </style>
 </defs>
 <g id="Camada_x0020_1">
  <metadata id="CorelCorpID_0Corel-Layer"/>
  <path class="fil0" d="M0 21c0,4 3,6 6,6 1,0 2,0 3,-1l0 1c0,3 3,5 6,5 3,0 6,-2 6,-5l0 -1c0,1 2,1 3,1 3,0 6,-2 6,-6 0,-2 -2,-4 -4,-5 2,-1 4,-3 4,-5 0,-3 -3,-6 -6,-6 -1,0 -2,1 -3,1l0 0c0,-3 -3,-6 -6,-6 -3,0 -6,3 -6,6l0 0c-1,0 -2,-1 -3,-1 -3,0 -6,3 -6,6 0,2 1,4 3,5 -2,1 -3,3 -3,5zm15 -11c3,0 6,3 6,6 0,3 -3,6 -6,6 -3,0 -6,-3 -6,-6 0,-3 3,-6 6,-6z"/>
 </g>
</svg>
