<?xml version="1.0" encoding="UTF-8"?>
<!DOCTYPE svg PUBLIC "-//W3C//DTD SVG 1.1//EN" "http://www.w3.org/Graphics/SVG/1.1/DTD/svg11.dtd">
<!-- Creator: CorelDRAW X7 -->
<svg xmlns="http://www.w3.org/2000/svg" xml:space="preserve" width="54.3828mm" height="76.3039mm" version="1.1" style="shape-rendering:geometricPrecision; text-rendering:geometricPrecision; image-rendering:optimizeQuality; fill-rule:evenodd; clip-rule:evenodd"
viewBox="0 0 18523 25990"
 xmlns:xlink="http://www.w3.org/1999/xlink">
 <defs>
  <style type="text/css">
   <![CDATA[
    .fil1 {fill:#FEFEFE}
    .fil0 {fill:#FEFEFE;fill-rule:nonzero}
   ]]>
  </style>
 </defs>
 <g id="Camada_x0020_1">
  <metadata id="CorelCorpID_0Corel-Layer"/>
  <path class="fil0" d="M1703 21867c211,0 410,45 597,136 187,90 324,228 410,413l-465 251c-69,-99 -163,-188 -284,-267 -120,-80 -249,-120 -387,-120 -219,0 -411,57 -574,171 -163,114 -288,268 -374,461 -86,194 -129,409 -129,646 0,339 58,616 174,829 116,213 299,319 548,319 353,0 596,-142 729,-426 134,-284 200,-593 200,-929l0 -290 568 -239 0 1697c0,56 15,110 45,161 31,52 76,78 136,78 125,0 239,-86 342,-258l97 103c-52,146 -142,270 -271,371 -129,101 -258,151 -387,151 -185,0 -322,-68 -410,-206 -88,-138 -132,-320 -132,-548l-13 0c-108,228 -253,418 -436,571 -183,152 -375,229 -577,229 -366,0 -642,-126 -829,-378 -187,-251 -281,-588 -281,-1010 0,-335 75,-650 226,-945 150,-294 356,-530 616,-706 260,-177 547,-265 861,-265zm5175 -1406c124,0 255,38 390,116 136,77 246,178 332,303l-438 239c-39,-125 -98,-229 -178,-313 -79,-84 -175,-126 -287,-126 -150,0 -255,57 -313,171 -58,114 -87,248 -87,403l0 1362 897 0 -142 316 -755 0 0 2819 -561 239 0 -3058 -1329 0 0 2819 -568 239 0 -3058 -316 0 129 -316 187 0 0 -684c0,-400 99,-745 297,-1036 198,-290 507,-435 929,-435 146,0 301,41 464,122 164,82 314,194 452,336 206,-306 505,-458 897,-458zm-1929 219c-362,0 -542,228 -542,684l0 1252 1329 0 0 -684c0,-168 17,-321 51,-458 -77,-241 -185,-434 -322,-578 -138,-144 -310,-216 -516,-216zm4135 1129c233,0 426,63 581,187 155,125 232,310 232,555 0,198 -106,418 -319,661 -213,243 -463,466 -749,668 -286,202 -530,344 -732,426 108,172 230,291 368,358 137,67 299,100 484,100 206,0 412,-53 616,-158 204,-105 373,-242 506,-410l78 136c-211,271 -435,478 -671,622 -237,145 -527,217 -871,217 -263,0 -497,-65 -703,-194 -207,-129 -368,-302 -484,-519 -116,-218 -175,-453 -175,-707 0,-318 87,-628 259,-929 172,-301 400,-545 683,-732 284,-187 583,-281 897,-281zm-335 407c-189,0 -358,60 -507,180 -148,121 -264,276 -348,465 -84,189 -126,385 -126,587 0,267 62,495 187,684 181,-82 377,-206 587,-371 211,-166 390,-345 536,-539 146,-193 219,-370 219,-529 0,-318 -183,-477 -548,-477zm2819 -349l897 0 -193 413 -704 0 0 2271c0,65 20,117 58,158 39,41 91,62 155,62 90,0 215,-84 374,-252l91 97c-82,163 -180,285 -294,364 -114,80 -221,129 -322,149 -102,19 -152,20 -152,3 4,0 11,-1 19,-3 9,-2 22,-4 39,-4 -379,0 -568,-217 -568,-651l0 -2194 -484 0 200 -413 284 0 0 -1484 600 -232 0 1716zm2233 0l896 0 -193 413 -703 0 0 2271c0,65 19,117 58,158 38,41 90,62 155,62 90,0 215,-84 374,-252l90 97c-82,163 -180,285 -293,364 -114,80 -222,129 -323,149 -101,19 -152,20 -152,3 5,0 11,-1 20,-3 8,-2 21,-4 38,-4 -378,0 -567,-217 -567,-651l0 -2194 -484 0 200 -413 284 0 0 -1484 600 -232 0 1716zm4110 2665c0,64 16,117 48,158 32,41 78,61 139,61 90,0 200,-84 329,-251l96 96c-90,194 -199,331 -325,410 -127,80 -191,119 -191,119 0,0 -56,0 -167,0 -138,0 -242,-38 -313,-116 -71,-77 -122,-216 -152,-416 -30,-200 -45,-498 -45,-893 0,-237 2,-426 6,-568l-51 -129 -20 0c-112,529 -267,1022 -467,1481 -200,458 -485,687 -855,687 -138,0 -238,-35 -300,-104 -63,-68 -100,-162 -113,-280 -13,-119 -20,-300 -20,-545l0 -1820c0,-73 -16,-131 -48,-174 -32,-43 -76,-65 -132,-65 -103,0 -220,86 -349,258l-77 -103c69,-163 156,-285 261,-364 106,-80 205,-129 297,-149 92,-19 139,-22 139,-9 -5,0 -11,1 -20,3 -8,2 -21,3 -38,3 370,0 554,213 554,639l0 1858c0,95 11,162 33,203 21,41 47,62 77,62 185,0 357,-181 516,-542 160,-362 290,-760 391,-1194 101,-435 151,-695 151,-781l646 -290 0 2755z"/>
 </g>
 <g id="Camada_x0020_1_0">
  <metadata id="CorelCorpID_1Corel-Layer"/>
  <g id="_973569408">
   <path class="fil1" d="M6558 3516c1257,-1862 2348,-3064 2778,-3516 242,320 507,717 805,1157 408,651 937,1544 1466,2624 -739,739 -1566,1642 -2359,2701 -915,-1191 -1863,-2183 -2690,-2966z"/>
   <path class="fil1" d="M11276 18574c-1279,386 -2623,375 -3880,44 -562,-782 -1158,-1907 -1367,-3053 -209,-1169 -132,-2535 474,-4079 683,-1774 1642,-3362 2635,-4707 33,-44 66,-88 99,-132 1433,-1896 2943,-3329 3935,-4167 408,-341 783,-628 1102,-871 419,827 1764,3737 2536,7871 849,4553 -2006,8091 -5534,9094l0 0 0 0zm-4023 11c-3506,-992 -6350,-4486 -5556,-9017 738,-4145 2050,-7066 2458,-7903 320,242 694,529 1113,870 981,816 2481,2194 3914,4035l-11 -11c-44,55 -78,110 -122,154 -1003,1356 -1951,2943 -2645,4740 -607,1566 -695,2943 -474,4134 209,1168 749,2205 1323,2998l0 0z"/>
  </g>
 </g>
</svg>
