<?xml version="1.0" encoding="UTF-8"?>
<!DOCTYPE svg PUBLIC "-//W3C//DTD SVG 1.1//EN" "http://www.w3.org/Graphics/SVG/1.1/DTD/svg11.dtd">
<!-- Creator: CorelDRAW X7 -->
<svg xmlns="http://www.w3.org/2000/svg" xml:space="preserve" width="42.4173mm" height="19.725mm" version="1.1" style="shape-rendering:geometricPrecision; text-rendering:geometricPrecision; image-rendering:optimizeQuality; fill-rule:evenodd; clip-rule:evenodd"
viewBox="0 0 41165 19143"
 xmlns:xlink="http://www.w3.org/1999/xlink">
 <defs>
  <style type="text/css">
   <![CDATA[
    .fil0 {fill:#FEFEFE;fill-rule:nonzero}
   ]]>
  </style>
 </defs>
 <g id="Camada_x0020_1">
  <metadata id="CorelCorpID_0Corel-Layer"/>
  <path class="fil0" d="M4036 13525c0,-362 16,-716 47,-1062 32,-346 48,-701 48,-1063l-95 0c-362,284 -751,567 -1168,850 -417,284 -854,425 -1310,425 -409,0 -771,-161 -1086,-484 -315,-322 -472,-720 -472,-1192 0,-425 90,-822 271,-1192 181,-369 417,-692 708,-967 292,-276 622,-492 992,-650 370,-157 736,-236 1097,-236 63,0 154,8 272,24 118,16 228,43 330,83 103,39 193,94 272,165 78,71 118,161 118,271 0,126 -28,240 -83,343 -55,102 -153,153 -295,153 -142,0 -283,-16 -425,-47 -141,-32 -283,-47 -425,-47 -236,0 -472,55 -708,165 -236,110 -440,256 -613,436 -173,181 -315,394 -425,638 -110,244 -166,499 -166,767 0,330 91,558 272,684 181,126 405,189 673,189 31,0 98,-4 200,-12 103,-7 169,-11 201,-11l1274 -803c111,-79 233,-197 366,-354 134,-157 280,-236 437,-236 126,0 232,39 319,118 86,79 161,165 224,260l0 566c0,582 -43,1149 -130,1700 -86,550 -114,1125 -83,1723 -31,78 -62,122 -94,129 -31,8 -63,12 -94,12 -142,0 -244,-75 -307,-224 -63,-149 -110,-271 -142,-366l0 -755zm3895 5405c0,-283 15,-720 47,-1310 31,-590 51,-1212 59,-1865 8,-653 -8,-1278 -47,-1876 -40,-598 -122,-1062 -248,-1393l-1133 0c-94,0 -161,-43 -201,-129 -39,-87 -55,-181 -47,-284 8,-102 39,-196 94,-283 56,-87 138,-130 248,-130 252,-16 441,-31 567,-47 126,-16 220,-24 283,-24 63,0 98,4 106,12 8,8 12,20 12,36 16,15 28,-221 36,-709 7,-487 35,-1109 82,-1864 47,-756 110,-1574 189,-2455 79,-881 193,-1703 342,-2467 150,-763 331,-1396 543,-1900 213,-503 476,-755 791,-755 126,0 236,51 330,153 95,103 142,217 142,343 -16,31 -24,55 -24,71l0 70c-346,645 -621,1302 -826,1971 -204,669 -362,1346 -472,2030 -110,685 -181,1381 -212,2089 -32,708 -48,1424 -48,2148l0 826c0,173 8,346 24,519l1227 213c63,16 99,47 107,94 8,47 11,87 11,118 0,63 -15,138 -47,225 -31,86 -86,129 -165,129l-1133 24c16,126 35,366 59,720 24,354 47,732 71,1133 24,401 43,779 59,1133 16,354 24,602 24,743l0 1086c0,110 3,268 11,472 8,205 -4,405 -35,602 -32,197 -91,370 -177,519 -87,150 -232,225 -437,225 -141,0 -212,-71 -212,-213zm4768 0c0,-283 15,-720 47,-1310 31,-590 51,-1212 59,-1865 8,-653 -8,-1278 -47,-1876 -40,-598 -122,-1062 -248,-1393l-1133 0c-95,0 -161,-43 -201,-129 -39,-87 -55,-181 -47,-284 8,-102 39,-196 94,-283 56,-87 138,-130 248,-130 252,-16 441,-31 567,-47 126,-16 220,-24 283,-24 63,0 98,4 106,12 8,8 12,20 12,36 16,15 28,-221 35,-709 8,-487 36,-1109 83,-1864 47,-756 110,-1574 189,-2455 79,-881 193,-1703 342,-2467 150,-763 331,-1396 543,-1900 212,-503 476,-755 791,-755 126,0 236,51 330,153 95,103 142,217 142,343 -16,31 -24,55 -24,71l0 70c-346,645 -621,1302 -826,1971 -205,669 -362,1346 -472,2030 -110,685 -181,1381 -212,2089 -32,708 -48,1424 -48,2148l0 826c0,173 8,346 24,519l1227 213c63,16 99,47 107,94 7,47 11,87 11,118 0,63 -15,138 -47,225 -31,86 -86,129 -165,129l-1133 24c16,126 35,366 59,720 24,354 47,732 71,1133 23,401 43,779 59,1133 15,354 23,602 23,743l0 1086c0,110 4,268 12,472 8,205 -4,405 -35,602 -32,197 -91,370 -177,519 -87,150 -232,225 -437,225 -142,0 -212,-71 -212,-213zm2903 -7459c0,-141 24,-236 71,-283 47,-47 98,-86 153,-118 55,-31 110,-63 165,-94 55,-32 91,-95 107,-189 47,-315 118,-649 212,-1003 94,-354 224,-677 389,-968 166,-291 382,-535 650,-732 267,-197 605,-295 1015,-295 220,0 377,83 472,248 94,165 141,342 141,531 0,236 -63,488 -189,755 -125,268 -279,532 -460,791 -181,260 -370,504 -566,732 -197,228 -374,421 -531,578 78,142 208,248 389,319 181,71 362,134 543,189 181,55 342,126 484,212 141,87 212,216 212,390 0,125 -31,200 -94,224 -63,23 -150,35 -260,35 -267,0 -535,-19 -802,-59 -268,-39 -512,-145 -732,-318 -16,-16 -47,-48 -95,-95 -47,-47 -98,-102 -153,-165 -55,-63 -106,-118 -153,-165 -48,-48 -79,-71 -95,-71 -157,-63 -291,-87 -401,-71 -110,16 -201,28 -271,35 -71,8 -122,-11 -154,-59 -31,-47 -47,-165 -47,-354zm2384 -2549c-220,63 -425,220 -614,472 -189,252 -283,488 -283,708 0,16 4,48 12,95 8,47 12,78 12,94 62,-63 145,-145 247,-248 103,-102 201,-212 295,-330 95,-118 174,-236 236,-354 63,-118 95,-224 95,-319l0 -118zm3824 1700c-173,78 -347,208 -520,389 -173,181 -346,271 -519,271 -79,0 -142,-3 -189,-11 -47,-8 -110,-51 -189,-130l0 -307c0,-173 48,-323 142,-448 94,-126 205,-236 330,-331 126,-94 264,-173 414,-236 149,-63 287,-126 413,-189 31,-251 67,-602 106,-1050 39,-449 79,-956 118,-1523 39,-566 79,-1164 118,-1793 39,-630 71,-1236 94,-1818 24,-582 36,-1121 36,-1617 0,-495 -8,-893 -24,-1192 0,-173 28,-322 83,-448 55,-126 169,-189 342,-189 79,0 169,24 271,71 103,47 154,141 154,283 0,94 -12,283 -36,566 -23,284 -59,752 -106,1405 -47,653 -110,1530 -189,2632 -78,1101 -173,2517 -283,4248 189,-110 401,-228 637,-354 236,-126 476,-244 720,-354 244,-110 488,-204 732,-283 244,-79 476,-118 696,-118 142,0 213,134 213,401l-2479 1369c-15,16 -94,95 -236,236 -141,142 -212,244 -212,307 0,315 47,641 142,980 94,338 224,649 389,932 165,283 366,515 602,696 236,181 503,272 802,272l118 0c205,-16 355,-32 449,-47 94,-16 177,-40 248,-71 71,-32 145,-75 224,-130 79,-55 205,-146 378,-271l47 0c16,0 23,-4 23,-12 0,-8 8,-12 24,-12 126,0 197,47 213,142 15,94 -16,181 -95,259 -79,79 -161,177 -248,295 -86,118 -192,232 -318,342 -126,111 -280,205 -461,284 -181,78 -413,118 -696,118 -425,0 -791,-106 -1098,-319 -306,-212 -562,-488 -767,-826 -204,-338 -358,-720 -460,-1145 -102,-425 -153,-850 -153,-1274zm5924 0c-173,78 -346,208 -519,389 -173,181 -346,271 -519,271 -79,0 -142,-3 -189,-11 -47,-8 -110,-51 -189,-130l0 -307c0,-173 47,-323 142,-448 94,-126 204,-236 330,-331 126,-94 264,-173 413,-236 150,-63 287,-126 413,-189 32,-251 67,-602 106,-1050 40,-449 79,-956 118,-1523 40,-566 79,-1164 118,-1793 40,-630 71,-1236 95,-1818 23,-582 35,-1121 35,-1617 0,-495 -8,-893 -23,-1192 0,-173 27,-322 82,-448 55,-126 169,-189 343,-189 78,0 169,24 271,71 102,47 153,141 153,283 0,94 -11,283 -35,566 -24,284 -59,752 -106,1405 -47,653 -110,1530 -189,2632 -79,1101 -173,2517 -283,4248 189,-110 401,-228 637,-354 236,-126 476,-244 720,-354 244,-110 488,-204 732,-283 243,-79 476,-118 696,-118 141,0 212,134 212,401l-2478 1369c-16,16 -94,95 -236,236 -142,142 -213,244 -213,307 0,315 48,641 142,980 95,338 224,649 390,932 165,283 365,515 601,696 236,181 504,272 803,272l118 0c205,-16 354,-32 448,-47 95,-16 177,-40 248,-71 71,-32 146,-75 224,-130 79,-55 205,-146 378,-271l47 0c16,0 24,-4 24,-12 0,-8 8,-12 24,-12 126,0 196,47 212,142 16,94 -16,181 -94,259 -79,79 -162,177 -248,295 -87,118 -193,232 -319,342 -126,111 -279,205 -460,284 -181,78 -413,118 -696,118 -425,0 -791,-106 -1098,-319 -307,-212 -563,-488 -767,-826 -205,-338 -358,-720 -460,-1145 -103,-425 -154,-850 -154,-1274zm5028 -425c0,-205 8,-425 23,-661 16,-236 158,-354 425,-354 95,0 181,8 260,23 79,16 134,87 165,213l0 1510c16,189 51,417 106,685 55,267 142,519 260,755 118,236 267,437 448,602 181,165 406,248 673,248 283,0 563,-146 838,-437 276,-291 523,-633 744,-1026 220,-394 405,-791 554,-1192 150,-402 248,-712 295,-933 16,-94 24,-200 24,-318 0,-118 8,-229 24,-331 15,-102 55,-189 118,-259 62,-71 173,-107 330,-107 205,0 370,118 496,354 63,378 122,728 177,1051 55,322 130,633 224,932 94,299 228,578 401,838 173,260 409,515 708,767 16,0 44,4 83,12 39,8 67,12 83,12 94,0 169,-28 224,-83 55,-55 102,-118 141,-189 40,-71 83,-137 130,-200 47,-63 118,-95 213,-95 157,0 236,71 236,213 0,267 -83,539 -248,814 -165,275 -397,413 -696,413 -284,0 -543,-86 -779,-260 -236,-173 -445,-381 -626,-625 -181,-244 -338,-504 -472,-779 -134,-275 -248,-523 -342,-744l-118 0c-95,252 -228,551 -401,897 -174,347 -378,681 -614,1004 -236,322 -500,594 -791,814 -291,220 -602,330 -932,330 -488,0 -885,-133 -1192,-401 -307,-267 -551,-598 -732,-991 -181,-394 -303,-819 -366,-1275 -63,-456 -94,-865 -94,-1227z"/>
 </g>
</svg>
