<?xml version="1.0" encoding="UTF-8"?>
<!DOCTYPE svg PUBLIC "-//W3C//DTD SVG 1.1//EN" "http://www.w3.org/Graphics/SVG/1.1/DTD/svg11.dtd">
<!-- Creator: CorelDRAW X7 -->
<svg xmlns="http://www.w3.org/2000/svg" xml:space="preserve" width="71.1794mm" height="71.1794mm" version="1.1" style="shape-rendering:geometricPrecision; text-rendering:geometricPrecision; image-rendering:optimizeQuality; fill-rule:evenodd; clip-rule:evenodd"
viewBox="0 0 7118 7118"
 xmlns:xlink="http://www.w3.org/1999/xlink">
 <defs>
  <style type="text/css">
   <![CDATA[
    .fil0 {fill:#1BBD36}
   ]]>
  </style>
 </defs>
 <g id="Camada_x0020_1">
  <metadata id="CorelCorpID_0Corel-Layer"/>
  <path class="fil0" d="M3559 0c1966,0 3559,1593 3559,3559 0,1966 -1593,3559 -3559,3559 -1966,0 -3559,-1593 -3559,-3559 0,-1966 1593,-3559 3559,-3559zm-42 5814l83 0c419,-484 1250,-1556 1518,-2286 201,-549 79,-1105 -196,-1512 -514,-761 -1484,-907 -2237,-462 -635,375 -962,1222 -686,1974 267,728 1100,1804 1518,2286zm42 -3669c452,0 818,366 818,818 0,451 -366,817 -818,817 -451,0 -817,-366 -817,-817 0,-452 366,-818 817,-818z"/>
 </g>
</svg>
